<?xml version="1.0" standalone="no"?>
<!DOCTYPE svg PUBLIC "-//W3C//DTD SVG 20010904//EN"
 "http://www.w3.org/TR/2001/REC-SVG-20010904/DTD/svg10.dtd">
<svg version="1.0" xmlns="http://www.w3.org/2000/svg"
 width="500.000000pt" height="175.000000pt" viewBox="0 0 500.000000 175.000000"
 preserveAspectRatio="xMidYMid meet">

<g transform="translate(0.000000,175.000000) scale(0.100000,-0.100000)"
fill="#000000" stroke="none">
<path d="M865 1666 c-5 -3 -27 -7 -47 -11 l-38 -6 0 -472 -1 -472 -42 48 c-24
26 -46 47 -49 47 -4 0 -27 -21 -52 -47 l-46 -48 0 348 0 348 -41 -23 c-23 -13
-61 -40 -85 -61 l-44 -39 0 -399 0 -399 85 0 86 0 49 46 50 47 44 -47 43 -47
89 3 89 3 3 553 2 552 74 0 c320 0 623 -175 753 -435 90 -180 83 -418 -18
-588 -73 -122 -216 -256 -322 -301 -36 -15 -38 -14 -53 9 -9 14 -19 25 -23 25
-7 0 -64 -140 -59 -145 6 -6 172 -34 176 -30 3 2 -3 16 -12 29 -9 14 -16 27
-16 30 0 2 30 21 67 41 148 81 276 207 344 337 54 104 69 156 76 263 24 365
-234 685 -654 811 -77 23 -109 27 -253 30 -91 2 -169 2 -175 0z"/>
<path d="M510 1621 c0 -5 7 -14 15 -21 25 -21 17 -34 -38 -62 -28 -16 -65 -39
-81 -53 -16 -14 -32 -25 -36 -25 -4 0 -40 -32 -79 -71 -160 -159 -231 -314
-231 -507 0 -54 7 -121 16 -155 23 -88 96 -233 151 -297 87 -102 258 -230 285
-214 6 4 8 2 4 -4 -10 -17 169 -81 294 -103 92 -17 137 -20 225 -15 61 3 127
10 148 16 l37 11 0 459 c0 289 4 460 10 460 5 0 27 -19 49 -42 l40 -43 38 43
c21 23 44 42 51 42 9 0 12 -77 12 -335 0 -184 3 -335 6 -335 15 0 114 72 137
100 l26 30 -2 383 -2 382 -87 3 -88 3 -42 -41 c-23 -22 -47 -40 -53 -40 -6 0
-29 18 -50 40 l-39 40 -88 0 -88 0 0 -556 0 -557 -102 6 c-173 10 -281 41
-426 121 -131 73 -279 230 -329 351 -31 74 -46 190 -41 307 4 91 9 112 40 178
38 82 103 170 176 238 60 56 188 142 211 142 10 0 24 -11 31 -25 7 -14 16 -25
19 -25 8 0 62 143 56 148 -5 5 -139 30 -162 31 -7 1 -13 -3 -13 -8z"/>
<path d="M2206 1219 c-120 -28 -184 -120 -154 -221 18 -62 69 -97 201 -141 63
-20 122 -46 131 -56 22 -24 30 -82 14 -101 -35 -41 -49 -44 -197 -50 l-146 -5
-6 -38 c-4 -28 -2 -40 7 -44 8 -3 80 -3 162 -1 126 3 153 7 187 25 100 53 136
132 101 218 -28 66 -81 101 -222 143 -87 26 -124 58 -124 105 0 63 16 72 134
75 l106 4 28 36 c51 65 54 62 -70 61 -62 -1 -130 -5 -152 -10z"/>
<path d="M2559 1189 c-41 -51 -31 -59 69 -58 40 1 75 -1 78 -3 2 -3 5 -126 6
-274 1 -148 3 -275 6 -281 2 -8 22 -13 48 -13 l44 0 2 287 3 287 96 -3 c107
-3 118 3 115 59 l-1 35 -217 3 -216 2 -33 -41z"/>
<path d="M3218 1202 c-132 -48 -228 -179 -228 -309 0 -51 21 -124 33 -116 6 3
7 1 3 -5 -9 -15 9 -47 51 -93 73 -79 162 -119 266 -119 63 0 162 34 214 73 50
39 108 121 98 138 -5 7 -4 10 2 6 12 -8 33 65 33 116 0 19 -9 65 -20 101 -26
84 -89 152 -181 195 -55 27 -75 31 -144 31 -49 -1 -98 -7 -127 -18z m206 -74
c-3 -5 2 -8 11 -8 25 0 83 -48 116 -97 43 -63 51 -161 19 -230 -45 -94 -123
-143 -232 -145 -206 -3 -327 257 -189 404 15 15 43 40 65 56 36 27 45 29 126
28 49 0 86 -4 84 -8z"/>
<path d="M3792 893 l3 -328 45 0 45 0 3 238 c1 130 6 237 10 237 4 0 28 -28
52 -62 51 -70 69 -94 200 -268 122 -161 112 -152 162 -148 l43 3 3 328 2 327
-50 0 -50 0 0 -235 c0 -256 -3 -268 -50 -198 -14 21 -52 73 -85 116 -33 43
-67 89 -75 101 -8 12 -48 65 -87 119 l-73 97 -50 0 -50 0 2 -327z"/>
<path d="M4470 890 l0 -330 236 2 237 3 4 38 c2 21 -1 38 -7 38 -5 1 -14 3
-20 4 -5 1 -86 3 -180 4 l-170 1 0 100 0 100 159 0 c143 0 160 2 165 18 3 9 4
24 3 32 -6 38 -15 40 -172 40 l-154 0 -3 91 c-2 50 -1 93 1 95 2 2 74 4 160 4
197 0 201 1 201 51 l0 39 -230 0 -230 0 0 -330z"/>
</g>
</svg>
